<svg xmlns="http://www.w3.org/2000/svg" xmlns:xlink="http://www.w3.org/1999/xlink" width="115" zoomAndPan="magnify" viewBox="0 0 86.25 86.249996" height="115" preserveAspectRatio="xMidYMid meet" version="1.0"><defs><g/><clipPath id="c1aaebe26f"><path d="M 30.761719 24.351562 L 54.554688 24.351562 L 54.554688 48.144531 L 30.761719 48.144531 Z M 30.761719 24.351562 " clip-rule="nonzero"/></clipPath></defs><path fill="#5400cf" d="M 45.261719 30.609375 L 45.261719 41.890625 L 48.203125 38.949219 L 48.203125 26.15625 L 45.261719 26.15625 L 45.261719 30.609375 " fill-opacity="1" fill-rule="nonzero"/><path fill="#9e0be6" d="M 41.1875 43.023438 L 42.65625 44.492188 L 44.128906 43.023438 L 44.128906 31.085938 L 41.1875 31.085938 L 41.1875 43.023438 " fill-opacity="1" fill-rule="nonzero"/><g clip-path="url(#c1aaebe26f)"><path fill="#051d40" d="M 48.796875 30.492188 L 48.796875 33.304688 L 51.746094 36.25 L 42.65625 45.335938 L 33.570312 36.25 L 42.65625 27.164062 L 44.664062 29.171875 L 44.664062 26.359375 L 42.65625 24.355469 L 30.761719 36.25 L 42.65625 48.148438 L 54.554688 36.25 L 48.796875 30.492188 " fill-opacity="1" fill-rule="nonzero"/></g><path fill="#d00edb" d="M 40.054688 41.890625 L 40.054688 34.503906 L 37.113281 34.503906 L 37.113281 38.949219 L 40.054688 41.890625 " fill-opacity="1" fill-rule="nonzero"/><g fill="#000000" fill-opacity="1"><g transform="translate(27.268801, 55.595488)"><g><path d="M 4.875 -2.25 C 4.875 -2.125 4.863281 -1.976562 4.84375 -1.8125 C 4.820312 -1.65625 4.785156 -1.492188 4.734375 -1.328125 C 4.679688 -1.171875 4.613281 -1.019531 4.53125 -0.875 C 4.445312 -0.738281 4.351562 -0.613281 4.25 -0.5 C 4.144531 -0.382812 4.035156 -0.289062 3.921875 -0.21875 C 3.816406 -0.144531 3.71875 -0.0859375 3.625 -0.046875 L 4.765625 0.984375 L 3.875 0.984375 L 2.984375 0.15625 C 2.890625 0.164062 2.769531 0.171875 2.625 0.171875 C 2.5 0.171875 2.363281 0.160156 2.21875 0.140625 C 2.082031 0.128906 1.929688 0.09375 1.765625 0.03125 C 1.609375 -0.0195312 1.445312 -0.0976562 1.28125 -0.203125 C 1.125 -0.316406 0.972656 -0.46875 0.828125 -0.65625 C 0.679688 -0.84375 0.566406 -1.070312 0.484375 -1.34375 C 0.410156 -1.613281 0.375 -1.90625 0.375 -2.21875 C 0.375 -2.582031 0.425781 -2.910156 0.53125 -3.203125 C 0.644531 -3.503906 0.800781 -3.757812 1 -3.96875 C 1.195312 -4.1875 1.4375 -4.347656 1.71875 -4.453125 C 2.007812 -4.566406 2.328125 -4.625 2.671875 -4.625 C 3.003906 -4.625 3.300781 -4.566406 3.5625 -4.453125 C 3.832031 -4.335938 4.066406 -4.175781 4.265625 -3.96875 C 4.460938 -3.757812 4.613281 -3.507812 4.71875 -3.21875 C 4.820312 -2.925781 4.875 -2.601562 4.875 -2.25 Z M 4.15625 -2.21875 C 4.15625 -2.5 4.117188 -2.753906 4.046875 -2.984375 C 3.972656 -3.222656 3.878906 -3.410156 3.765625 -3.546875 C 3.648438 -3.691406 3.523438 -3.800781 3.390625 -3.875 C 3.253906 -3.957031 3.117188 -4.015625 2.984375 -4.046875 C 2.847656 -4.078125 2.726562 -4.09375 2.625 -4.09375 C 2.40625 -4.09375 2.195312 -4.046875 2 -3.953125 C 1.8125 -3.859375 1.648438 -3.726562 1.515625 -3.5625 C 1.378906 -3.40625 1.273438 -3.210938 1.203125 -2.984375 C 1.128906 -2.753906 1.09375 -2.503906 1.09375 -2.234375 C 1.09375 -1.953125 1.128906 -1.695312 1.203125 -1.46875 C 1.273438 -1.238281 1.378906 -1.039062 1.515625 -0.875 C 1.648438 -0.71875 1.8125 -0.59375 2 -0.5 C 2.1875 -0.414062 2.394531 -0.375 2.625 -0.375 C 2.84375 -0.375 3.046875 -0.414062 3.234375 -0.5 C 3.421875 -0.59375 3.582031 -0.71875 3.71875 -0.875 C 3.851562 -1.039062 3.957031 -1.238281 4.03125 -1.46875 C 4.113281 -1.695312 4.15625 -1.945312 4.15625 -2.21875 Z M 4.15625 -2.21875 "/></g></g></g><g fill="#000000" fill-opacity="1"><g transform="translate(32.505665, 55.595488)"><g><path d="M 4.203125 -1.953125 C 4.203125 -1.585938 4.160156 -1.269531 4.078125 -1 C 3.992188 -0.738281 3.867188 -0.519531 3.703125 -0.34375 C 3.546875 -0.164062 3.351562 -0.0351562 3.125 0.046875 C 2.894531 0.128906 2.640625 0.171875 2.359375 0.171875 C 2.066406 0.171875 1.8125 0.128906 1.59375 0.046875 C 1.382812 -0.0234375 1.207031 -0.140625 1.0625 -0.296875 C 0.914062 -0.460938 0.800781 -0.679688 0.71875 -0.953125 C 0.632812 -1.222656 0.59375 -1.554688 0.59375 -1.953125 L 0.59375 -4.546875 L 1.265625 -4.546875 L 1.265625 -2.015625 C 1.265625 -1.765625 1.28125 -1.539062 1.3125 -1.34375 C 1.351562 -1.144531 1.414062 -0.972656 1.5 -0.828125 C 1.582031 -0.679688 1.695312 -0.566406 1.84375 -0.484375 C 2 -0.410156 2.179688 -0.375 2.390625 -0.375 C 2.609375 -0.375 2.789062 -0.410156 2.9375 -0.484375 C 3.09375 -0.566406 3.210938 -0.679688 3.296875 -0.828125 C 3.378906 -0.972656 3.4375 -1.144531 3.46875 -1.34375 C 3.5 -1.539062 3.515625 -1.765625 3.515625 -2.015625 L 3.515625 -4.546875 L 4.203125 -4.546875 Z M 4.203125 -1.953125 "/></g></g></g><g fill="#000000" fill-opacity="1"><g transform="translate(37.287148, 55.595488)"><g><path d="M 4 0.09375 L 3.515625 -1.078125 L 1.28125 -1.078125 L 0.796875 0.09375 L 0.078125 0.09375 L 2.0625 -4.546875 L 2.75 -4.546875 L 4.75 0.09375 Z M 2.6875 -3.140625 C 2.65625 -3.222656 2.601562 -3.351562 2.53125 -3.53125 C 2.46875 -3.707031 2.421875 -3.859375 2.390625 -3.984375 L 2.375 -3.984375 C 2.3125 -3.765625 2.207031 -3.484375 2.0625 -3.140625 L 1.484375 -1.609375 L 3.296875 -1.609375 Z M 2.6875 -3.140625 "/></g></g></g><g fill="#000000" fill-opacity="1"><g transform="translate(42.117864, 55.595488)"><g><path d="M 3.421875 0.09375 L 1.796875 -2.90625 C 1.765625 -2.96875 1.691406 -3.101562 1.578125 -3.3125 C 1.472656 -3.53125 1.367188 -3.757812 1.265625 -4 L 1.25 -4 C 1.257812 -3.851562 1.265625 -3.644531 1.265625 -3.375 C 1.273438 -3.101562 1.28125 -2.878906 1.28125 -2.703125 L 1.28125 0.09375 L 0.640625 0.09375 L 0.640625 -4.546875 L 1.640625 -4.546875 L 3.1875 -1.625 C 3.269531 -1.46875 3.359375 -1.296875 3.453125 -1.109375 C 3.546875 -0.921875 3.628906 -0.742188 3.703125 -0.578125 L 3.71875 -0.578125 C 3.707031 -0.734375 3.695312 -0.972656 3.6875 -1.296875 C 3.675781 -1.617188 3.671875 -1.882812 3.671875 -2.09375 L 3.671875 -4.546875 L 4.3125 -4.546875 L 4.3125 0.09375 Z M 3.421875 0.09375 "/></g></g></g><g fill="#000000" fill-opacity="1"><g transform="translate(47.065501, 55.595488)"><g><path d="M 1.53125 0.09375 L 1.53125 -3.96875 L 0.09375 -3.953125 L 0.09375 -4.546875 L 3.625 -4.546875 L 3.625 -3.953125 L 2.21875 -3.96875 L 2.21875 0.09375 Z M 1.53125 0.09375 "/></g></g></g><g fill="#000000" fill-opacity="1"><g transform="translate(50.776228, 55.595488)"><g><path d="M 0.640625 0.09375 L 0.640625 -4.546875 L 3.21875 -4.546875 L 3.21875 -3.984375 L 1.3125 -3.984375 L 1.3125 -2.578125 L 3.078125 -2.578125 L 3.078125 -2.03125 L 1.3125 -2.03125 L 1.3125 -0.46875 L 3.265625 -0.46875 L 3.265625 0.09375 Z M 0.640625 0.09375 "/></g></g></g><g fill="#000000" fill-opacity="1"><g transform="translate(54.511569, 55.595488)"><g><path d="M 0.234375 0.09375 L 0.234375 -0.46875 C 0.878906 -1.40625 1.425781 -2.195312 1.875 -2.84375 C 2.332031 -3.5 2.601562 -3.878906 2.6875 -3.984375 L 0.296875 -3.984375 L 0.296875 -4.546875 L 3.40625 -4.546875 L 3.40625 -3.921875 C 2.019531 -1.929688 1.207031 -0.78125 0.96875 -0.46875 L 3.46875 -0.46875 L 3.46875 0.09375 Z M 0.234375 0.09375 "/></g></g></g><g fill="#000000" fill-opacity="1"><g transform="translate(23.345538, 60.460861)"><g><path d="M 0.367188 0 L 1.703125 0 L 1.703125 -0.109375 L 0.488281 -0.109375 L 0.488281 -1.238281 L 1.476562 -1.238281 L 1.476562 -1.347656 L 0.488281 -1.347656 L 0.488281 -2.308594 L 1.667969 -2.308594 L 1.667969 -2.417969 L 0.367188 -2.417969 Z M 0.367188 0 "/></g></g></g><g fill="#000000" fill-opacity="1"><g transform="translate(25.458221, 60.460861)"><g><path d="M 0.726562 0.0429688 C 0.960938 0.0429688 1.179688 -0.0859375 1.359375 -0.234375 L 1.371094 -0.234375 L 1.386719 0 L 1.488281 0 L 1.488281 -1.136719 C 1.488281 -1.492188 1.359375 -1.800781 0.945312 -1.800781 C 0.660156 -1.800781 0.417969 -1.652344 0.304688 -1.574219 L 0.367188 -1.476562 C 0.480469 -1.566406 0.691406 -1.691406 0.941406 -1.691406 C 1.304688 -1.691406 1.375 -1.378906 1.367188 -1.097656 C 0.578125 -1.007812 0.21875 -0.824219 0.21875 -0.433594 C 0.21875 -0.101562 0.453125 0.0429688 0.726562 0.0429688 Z M 0.738281 -0.0664062 C 0.523438 -0.0664062 0.34375 -0.167969 0.34375 -0.4375 C 0.34375 -0.734375 0.601562 -0.910156 1.367188 -0.992188 L 1.367188 -0.363281 C 1.136719 -0.167969 0.945312 -0.0664062 0.738281 -0.0664062 Z M 0.738281 -0.0664062 "/></g></g></g><g fill="#000000" fill-opacity="1"><g transform="translate(27.484269, 60.460861)"><g><path d="M 0.761719 0.0429688 C 1.132812 0.0429688 1.335938 -0.183594 1.335938 -0.441406 C 1.335938 -0.785156 1.035156 -0.875 0.753906 -0.980469 C 0.542969 -1.058594 0.328125 -1.140625 0.328125 -1.351562 C 0.328125 -1.523438 0.460938 -1.691406 0.75 -1.691406 C 0.933594 -1.691406 1.058594 -1.617188 1.175781 -1.53125 L 1.246094 -1.621094 C 1.121094 -1.726562 0.933594 -1.800781 0.761719 -1.800781 C 0.398438 -1.800781 0.207031 -1.585938 0.207031 -1.34375 C 0.207031 -1.039062 0.507812 -0.941406 0.773438 -0.84375 C 0.980469 -0.769531 1.214844 -0.667969 1.214844 -0.4375 C 1.214844 -0.238281 1.0625 -0.0664062 0.769531 -0.0664062 C 0.511719 -0.0664062 0.347656 -0.167969 0.199219 -0.292969 L 0.125 -0.195312 C 0.28125 -0.0664062 0.5 0.0429688 0.761719 0.0429688 Z M 0.761719 0.0429688 "/></g></g></g><g fill="#000000" fill-opacity="1"><g transform="translate(29.193773, 60.460861)"><g><path d="M 0.246094 0.8125 C 0.550781 0.8125 0.726562 0.519531 0.816406 0.246094 L 1.515625 -1.757812 L 1.394531 -1.757812 L 1 -0.609375 C 0.949219 -0.460938 0.890625 -0.273438 0.832031 -0.117188 L 0.816406 -0.117188 C 0.75 -0.273438 0.675781 -0.460938 0.621094 -0.609375 L 0.175781 -1.757812 L 0.0429688 -1.757812 L 0.769531 0.0390625 L 0.71875 0.203125 C 0.625 0.484375 0.472656 0.695312 0.253906 0.695312 C 0.199219 0.695312 0.144531 0.683594 0.105469 0.667969 L 0.078125 0.777344 C 0.121094 0.800781 0.1875 0.8125 0.246094 0.8125 Z M 0.246094 0.8125 "/></g></g></g><g fill="#000000" fill-opacity="1"><g transform="translate(30.993241, 60.460861)"><g/></g></g><g fill="#000000" fill-opacity="1"><g transform="translate(32.166281, 60.460861)"><g><path d="M 0.335938 -1.214844 C 0.335938 -1.910156 0.679688 -2.347656 1.191406 -2.347656 C 1.699219 -2.347656 2.042969 -1.910156 2.042969 -1.214844 C 2.042969 -0.523438 1.699219 -0.0664062 1.191406 -0.0664062 C 0.679688 -0.0664062 0.335938 -0.523438 0.335938 -1.214844 Z M 2.140625 0.40625 C 2.082031 0.421875 2.011719 0.4375 1.898438 0.4375 C 1.585938 0.4375 1.363281 0.292969 1.257812 0.0390625 C 1.792969 0.00390625 2.171875 -0.484375 2.171875 -1.214844 C 2.171875 -1.980469 1.761719 -2.464844 1.191406 -2.464844 C 0.617188 -2.464844 0.207031 -1.980469 0.207031 -1.214844 C 0.207031 -0.488281 0.578125 0 1.113281 0.0390625 C 1.226562 0.335938 1.492188 0.558594 1.886719 0.558594 C 2 0.558594 2.109375 0.539062 2.167969 0.519531 Z M 2.140625 0.40625 "/></g></g></g><g fill="#000000" fill-opacity="1"><g transform="translate(34.785436, 60.460861)"><g><path d="M 0.851562 0.0429688 C 1.09375 0.0429688 1.277344 -0.0976562 1.453125 -0.300781 L 1.460938 -0.300781 L 1.472656 0 L 1.578125 0 L 1.578125 -1.757812 L 1.457031 -1.757812 L 1.457031 -0.441406 C 1.238281 -0.183594 1.078125 -0.0664062 0.859375 -0.0664062 C 0.5625 -0.0664062 0.441406 -0.253906 0.441406 -0.640625 L 0.441406 -1.757812 L 0.320312 -1.757812 L 0.320312 -0.625 C 0.320312 -0.171875 0.488281 0.0429688 0.851562 0.0429688 Z M 0.851562 0.0429688 "/></g></g></g><g fill="#000000" fill-opacity="1"><g transform="translate(36.9481, 60.460861)"><g><path d="M 0.726562 0.0429688 C 0.960938 0.0429688 1.179688 -0.0859375 1.359375 -0.234375 L 1.371094 -0.234375 L 1.386719 0 L 1.488281 0 L 1.488281 -1.136719 C 1.488281 -1.492188 1.359375 -1.800781 0.945312 -1.800781 C 0.660156 -1.800781 0.417969 -1.652344 0.304688 -1.574219 L 0.367188 -1.476562 C 0.480469 -1.566406 0.691406 -1.691406 0.941406 -1.691406 C 1.304688 -1.691406 1.375 -1.378906 1.367188 -1.097656 C 0.578125 -1.007812 0.21875 -0.824219 0.21875 -0.433594 C 0.21875 -0.101562 0.453125 0.0429688 0.726562 0.0429688 Z M 0.738281 -0.0664062 C 0.523438 -0.0664062 0.34375 -0.167969 0.34375 -0.4375 C 0.34375 -0.734375 0.601562 -0.910156 1.367188 -0.992188 L 1.367188 -0.363281 C 1.136719 -0.167969 0.945312 -0.0664062 0.738281 -0.0664062 Z M 0.738281 -0.0664062 "/></g></g></g><g fill="#000000" fill-opacity="1"><g transform="translate(38.974149, 60.460861)"><g><path d="M 0.351562 0 L 0.46875 0 L 0.46875 -1.34375 C 0.691406 -1.574219 0.851562 -1.691406 1.070312 -1.691406 C 1.371094 -1.691406 1.492188 -1.5 1.492188 -1.113281 L 1.492188 0 L 1.613281 0 L 1.613281 -1.128906 C 1.613281 -1.582031 1.441406 -1.800781 1.082031 -1.800781 C 0.839844 -1.800781 0.65625 -1.660156 0.476562 -1.476562 L 0.46875 -1.476562 L 0.449219 -1.757812 L 0.351562 -1.757812 Z M 0.351562 0 "/></g></g></g><g fill="#000000" fill-opacity="1"><g transform="translate(41.14681, 60.460861)"><g><path d="M 0.804688 0.0429688 C 0.863281 0.0429688 0.972656 0.0117188 1.078125 -0.0234375 L 1.035156 -0.125 C 0.972656 -0.09375 0.878906 -0.0664062 0.8125 -0.0664062 C 0.554688 -0.0664062 0.507812 -0.222656 0.507812 -0.449219 L 0.507812 -1.648438 L 1.027344 -1.648438 L 1.027344 -1.757812 L 0.507812 -1.757812 L 0.507812 -2.269531 L 0.402344 -2.269531 L 0.390625 -1.757812 L 0.109375 -1.738281 L 0.109375 -1.648438 L 0.390625 -1.648438 L 0.390625 -0.464844 C 0.390625 -0.160156 0.476562 0.0429688 0.804688 0.0429688 Z M 0.804688 0.0429688 "/></g></g></g><g fill="#000000" fill-opacity="1"><g transform="translate(42.499782, 60.460861)"><g><path d="M 0.21875 0.390625 C 0.414062 0.273438 0.5625 0.0703125 0.5625 -0.183594 C 0.5625 -0.320312 0.5 -0.414062 0.398438 -0.414062 C 0.328125 -0.414062 0.261719 -0.371094 0.261719 -0.277344 C 0.261719 -0.191406 0.324219 -0.144531 0.398438 -0.144531 C 0.414062 -0.144531 0.429688 -0.144531 0.441406 -0.148438 C 0.441406 0.0585938 0.328125 0.210938 0.175781 0.300781 Z M 0.21875 0.390625 "/></g></g></g><g fill="#000000" fill-opacity="1"><g transform="translate(43.509552, 60.460861)"><g/></g></g><g fill="#000000" fill-opacity="1"><g transform="translate(44.682592, 60.460861)"><g><path d="M 0.367188 0 L 1.703125 0 L 1.703125 -0.109375 L 0.488281 -0.109375 L 0.488281 -1.238281 L 1.476562 -1.238281 L 1.476562 -1.347656 L 0.488281 -1.347656 L 0.488281 -2.308594 L 1.667969 -2.308594 L 1.667969 -2.417969 L 0.367188 -2.417969 Z M 0.367188 0 "/></g></g></g><g fill="#000000" fill-opacity="1"><g transform="translate(46.795275, 60.460861)"><g><path d="M 0.726562 0.0429688 C 0.960938 0.0429688 1.179688 -0.0859375 1.359375 -0.234375 L 1.371094 -0.234375 L 1.386719 0 L 1.488281 0 L 1.488281 -1.136719 C 1.488281 -1.492188 1.359375 -1.800781 0.945312 -1.800781 C 0.660156 -1.800781 0.417969 -1.652344 0.304688 -1.574219 L 0.367188 -1.476562 C 0.480469 -1.566406 0.691406 -1.691406 0.941406 -1.691406 C 1.304688 -1.691406 1.375 -1.378906 1.367188 -1.097656 C 0.578125 -1.007812 0.21875 -0.824219 0.21875 -0.433594 C 0.21875 -0.101562 0.453125 0.0429688 0.726562 0.0429688 Z M 0.738281 -0.0664062 C 0.523438 -0.0664062 0.34375 -0.167969 0.34375 -0.4375 C 0.34375 -0.734375 0.601562 -0.910156 1.367188 -0.992188 L 1.367188 -0.363281 C 1.136719 -0.167969 0.945312 -0.0664062 0.738281 -0.0664062 Z M 0.738281 -0.0664062 "/></g></g></g><g fill="#000000" fill-opacity="1"><g transform="translate(48.821322, 60.460861)"><g><path d="M 0.761719 0.0429688 C 1.132812 0.0429688 1.335938 -0.183594 1.335938 -0.441406 C 1.335938 -0.785156 1.035156 -0.875 0.753906 -0.980469 C 0.542969 -1.058594 0.328125 -1.140625 0.328125 -1.351562 C 0.328125 -1.523438 0.460938 -1.691406 0.75 -1.691406 C 0.933594 -1.691406 1.058594 -1.617188 1.175781 -1.53125 L 1.246094 -1.621094 C 1.121094 -1.726562 0.933594 -1.800781 0.761719 -1.800781 C 0.398438 -1.800781 0.207031 -1.585938 0.207031 -1.34375 C 0.207031 -1.039062 0.507812 -0.941406 0.773438 -0.84375 C 0.980469 -0.769531 1.214844 -0.667969 1.214844 -0.4375 C 1.214844 -0.238281 1.0625 -0.0664062 0.769531 -0.0664062 C 0.511719 -0.0664062 0.347656 -0.167969 0.199219 -0.292969 L 0.125 -0.195312 C 0.28125 -0.0664062 0.5 0.0429688 0.761719 0.0429688 Z M 0.761719 0.0429688 "/></g></g></g><g fill="#000000" fill-opacity="1"><g transform="translate(50.530825, 60.460861)"><g><path d="M 0.246094 0.8125 C 0.550781 0.8125 0.726562 0.519531 0.816406 0.246094 L 1.515625 -1.757812 L 1.394531 -1.757812 L 1 -0.609375 C 0.949219 -0.460938 0.890625 -0.273438 0.832031 -0.117188 L 0.816406 -0.117188 C 0.75 -0.273438 0.675781 -0.460938 0.621094 -0.609375 L 0.175781 -1.757812 L 0.0429688 -1.757812 L 0.769531 0.0390625 L 0.71875 0.203125 C 0.625 0.484375 0.472656 0.695312 0.253906 0.695312 C 0.199219 0.695312 0.144531 0.683594 0.105469 0.667969 L 0.078125 0.777344 C 0.121094 0.800781 0.1875 0.8125 0.246094 0.8125 Z M 0.246094 0.8125 "/></g></g></g><g fill="#000000" fill-opacity="1"><g transform="translate(52.330291, 60.460861)"><g/></g></g><g fill="#000000" fill-opacity="1"><g transform="translate(53.50333, 60.460861)"><g><path d="M 0.367188 0 L 1.625 0 L 1.625 -0.109375 L 0.488281 -0.109375 L 0.488281 -2.417969 L 0.367188 -2.417969 Z M 0.367188 0 "/></g></g></g><g fill="#000000" fill-opacity="1"><g transform="translate(55.43608, 60.460861)"><g><path d="M 1 0.0429688 C 1.261719 0.0429688 1.410156 -0.0429688 1.542969 -0.125 L 1.488281 -0.226562 C 1.355469 -0.128906 1.207031 -0.0664062 1.007812 -0.0664062 C 0.59375 -0.0664062 0.324219 -0.40625 0.324219 -0.871094 L 1.609375 -0.871094 C 1.617188 -0.914062 1.617188 -0.953125 1.617188 -0.988281 C 1.617188 -1.511719 1.359375 -1.800781 0.953125 -1.800781 C 0.5625 -1.800781 0.195312 -1.445312 0.195312 -0.875 C 0.195312 -0.300781 0.554688 0.0429688 1 0.0429688 Z M 0.324219 -0.980469 C 0.359375 -1.421875 0.640625 -1.691406 0.953125 -1.691406 C 1.285156 -1.691406 1.5 -1.457031 1.5 -0.980469 Z M 0.324219 -0.980469 "/></g></g></g><g fill="#000000" fill-opacity="1"><g transform="translate(57.432139, 60.460861)"><g><path d="M 0.726562 0.0429688 C 0.960938 0.0429688 1.179688 -0.0859375 1.359375 -0.234375 L 1.371094 -0.234375 L 1.386719 0 L 1.488281 0 L 1.488281 -1.136719 C 1.488281 -1.492188 1.359375 -1.800781 0.945312 -1.800781 C 0.660156 -1.800781 0.417969 -1.652344 0.304688 -1.574219 L 0.367188 -1.476562 C 0.480469 -1.566406 0.691406 -1.691406 0.941406 -1.691406 C 1.304688 -1.691406 1.375 -1.378906 1.367188 -1.097656 C 0.578125 -1.007812 0.21875 -0.824219 0.21875 -0.433594 C 0.21875 -0.101562 0.453125 0.0429688 0.726562 0.0429688 Z M 0.738281 -0.0664062 C 0.523438 -0.0664062 0.34375 -0.167969 0.34375 -0.4375 C 0.34375 -0.734375 0.601562 -0.910156 1.367188 -0.992188 L 1.367188 -0.363281 C 1.136719 -0.167969 0.945312 -0.0664062 0.738281 -0.0664062 Z M 0.738281 -0.0664062 "/></g></g></g><g fill="#000000" fill-opacity="1"><g transform="translate(59.458187, 60.460861)"><g><path d="M 0.351562 0 L 0.46875 0 L 0.46875 -1.214844 C 0.605469 -1.558594 0.800781 -1.683594 0.957031 -1.683594 C 1.027344 -1.683594 1.054688 -1.675781 1.113281 -1.652344 L 1.144531 -1.761719 C 1.082031 -1.792969 1.035156 -1.800781 0.972656 -1.800781 C 0.761719 -1.800781 0.59375 -1.640625 0.476562 -1.425781 L 0.46875 -1.425781 L 0.449219 -1.757812 L 0.351562 -1.757812 Z M 0.351562 0 "/></g></g></g><g fill="#000000" fill-opacity="1"><g transform="translate(60.827819, 60.460861)"><g><path d="M 0.351562 0 L 0.46875 0 L 0.46875 -1.34375 C 0.691406 -1.574219 0.851562 -1.691406 1.070312 -1.691406 C 1.371094 -1.691406 1.492188 -1.5 1.492188 -1.113281 L 1.492188 0 L 1.613281 0 L 1.613281 -1.128906 C 1.613281 -1.582031 1.441406 -1.800781 1.082031 -1.800781 C 0.839844 -1.800781 0.65625 -1.660156 0.476562 -1.476562 L 0.46875 -1.476562 L 0.449219 -1.757812 L 0.351562 -1.757812 Z M 0.351562 0 "/></g></g></g></svg>